<?xml version="1.0"?>
<svg xmlns="http://www.w3.org/2000/svg" xmlns:xlink="http://www.w3.org/1999/xlink" xmlns:svgjs="http://svgjs.com/svgjs" version="1.1" width="512" height="512" x="0" y="0" viewBox="0 0 512 512" style="enable-background:new 0 0 512 512" xml:space="preserve" class=""><g>
<g xmlns="http://www.w3.org/2000/svg">
	<g>
		<path d="M256,347.229c-24.81,0-44.994,20.184-44.994,44.994S231.19,437.218,256,437.218c24.81,0,44.994-20.184,44.994-44.994    S280.81,347.229,256,347.229z M256,407.221c-8.27,0-14.998-6.728-14.998-14.998s6.728-14.998,14.998-14.998    s14.998,6.728,14.998,14.998S264.27,407.221,256,407.221z" fill="#f7ce2b" data-original="#000000" style="" class=""/>
	</g>
</g>
<g xmlns="http://www.w3.org/2000/svg">
	<g>
		<path d="M256,137.256c-24.81,0-44.994,20.184-44.994,44.994v119.985c0,24.81,20.184,44.994,44.994,44.994    s44.994-20.184,44.994-44.994V182.25C300.994,157.44,280.81,137.256,256,137.256z M270.998,302.235    c0,8.27-6.728,14.998-14.998,14.998s-14.998-6.728-14.998-14.998V182.25c0-8.27,6.728-14.998,14.998-14.998    s14.998,6.728,14.998,14.998V302.235z" fill="#f7ce2b" data-original="#000000" style="" class=""/>
	</g>
</g>
<g xmlns="http://www.w3.org/2000/svg">
	<g>
		<path d="M501.342,383.895L320.528,51.5c-29.084-48.984-99.896-48.903-128.946-0.027L10.635,383.934    c-29.687,49.997,6.288,113.277,64.48,113.277h361.77C495.002,497.211,531.1,434.01,501.342,383.895z M436.885,467.214H75.115    c-34.956,0-56.469-38.018-38.714-67.923L217.333,66.857c0.009-0.014,0.018-0.028,0.025-0.042    c17.435-29.361,59.924-29.394,77.401,0.04l180.815,332.394C493.386,429.249,471.8,467.214,436.885,467.214z" fill="#f7ce2b" data-original="#000000" style="" class=""/>
	</g>
</g>
<g xmlns="http://www.w3.org/2000/svg">
</g>
<g xmlns="http://www.w3.org/2000/svg">
</g>
<g xmlns="http://www.w3.org/2000/svg">
</g>
<g xmlns="http://www.w3.org/2000/svg">
</g>
<g xmlns="http://www.w3.org/2000/svg">
</g>
<g xmlns="http://www.w3.org/2000/svg">
</g>
<g xmlns="http://www.w3.org/2000/svg">
</g>
<g xmlns="http://www.w3.org/2000/svg">
</g>
<g xmlns="http://www.w3.org/2000/svg">
</g>
<g xmlns="http://www.w3.org/2000/svg">
</g>
<g xmlns="http://www.w3.org/2000/svg">
</g>
<g xmlns="http://www.w3.org/2000/svg">
</g>
<g xmlns="http://www.w3.org/2000/svg">
</g>
<g xmlns="http://www.w3.org/2000/svg">
</g>
<g xmlns="http://www.w3.org/2000/svg">
</g>
</g></svg>
