<svg width="45" height="45" viewBox="0 0 45 45" fill="none" xmlns="http://www.w3.org/2000/svg">
<path d="M22.4972 0.468384C10.0744 0.468384 0 10.5821 0 23.0584C0 33.0371 6.44625 41.5028 15.39 44.4924C16.515 44.7006 16.9256 44.0031 16.9256 43.404C16.9256 42.8668 16.9059 41.4465 16.8947 39.5621C10.6369 40.9262 9.315 36.5331 9.315 36.5331C8.29406 33.9231 6.8175 33.2284 6.8175 33.2284C4.77281 31.8278 6.96937 31.8559 6.96937 31.8559C9.22781 32.0162 10.4147 34.1846 10.4147 34.1846C12.4228 37.6356 15.6825 36.6399 16.965 36.0606C17.1675 34.6009 17.7497 33.6053 18.3937 33.0399C13.3988 32.469 8.145 30.5312 8.145 21.8771C8.145 19.4106 9.0225 17.394 10.4625 15.8134C10.2291 15.2424 9.45844 12.9446 10.6819 9.83682C10.6819 9.83682 12.5719 9.22932 16.8694 12.1515C18.6637 11.6509 20.5875 11.4006 22.5028 11.3921C24.4125 11.4034 26.3391 11.6509 28.1362 12.1543C32.4309 9.23213 34.3181 9.83963 34.3181 9.83963C35.5444 12.9503 34.7738 15.2453 34.5431 15.8162C35.9859 17.3968 36.855 19.4134 36.855 21.8799C36.855 30.5565 31.5956 32.4662 26.5837 33.0259C27.3909 33.7234 28.1109 35.1015 28.1109 37.2081C28.1109 40.2287 28.0828 42.6643 28.0828 43.404C28.0828 44.0087 28.4878 44.7118 29.6297 44.4896C38.5594 41.4971 45 33.0343 45 23.0584C45 10.5821 34.9256 0.468384 22.4972 0.468384Z" fill="#79F2CB"/>
</svg>
