<svg width="59" height="54" viewBox="0 0 59 54" fill="none" xmlns="http://www.w3.org/2000/svg">
<path d="M56.75 5.5C56.75 6.7 56.4667 7.75 55.9 8.65C55.3333 9.51666 54.6167 10.1833 53.75 10.65C52.9167 11.0833 52.1 11.3 51.3 11.3C50.5333 11.3 49.8 11.1167 49.1 10.75C48.4333 10.35 48 9.9 47.8 9.4L35.65 29.7C34.7167 31.2667 33.8667 32.3833 33.1 33.05C32.3667 33.6833 31.5167 34 30.55 34C28.3167 34 27.05 32.5667 26.75 29.7L25.15 15L15.05 29.7C13.8833 31.4 12.9333 32.55 12.2 33.15C11.5 33.7167 10.6833 34 9.75 34C7.71667 34 6.48333 32.4 6.05 29.2L2.85 6.6C2.75 5.93333 2.55 5.4 2.25 5C1.98333 4.6 1.63333 4.21667 1.2 3.85C0.9 3.58333 0.683334 3.36667 0.550001 3.2C0.416667 3 0.35 2.78333 0.35 2.55C0.183334 1.31667 0.916667 0.7 2.55 0.7H15C15.7667 0.7 16.3333 0.866666 16.7 1.2C17.1 1.5 17.2833 1.91667 17.25 2.45C17.25 2.71667 17.1667 2.98333 17 3.25C16.8667 3.48333 16.7167 3.7 16.55 3.9C16.1833 4.3 15.9167 4.68333 15.75 5.05C15.5833 5.41667 15.5333 5.9 15.6 6.5L16.9 18.55L24.4 7.8L24.25 6.6C24.1833 5.96666 24.0167 5.45 23.75 5.05C23.4833 4.65 23.1167 4.26667 22.65 3.9C22.3167 3.6 22.0833 3.36667 21.95 3.2C21.8167 3 21.75 2.78333 21.75 2.55C21.5833 1.31667 22.3167 0.7 23.95 0.7H36.45C37.2167 0.7 37.8 0.866666 38.2 1.2C38.6 1.5 38.7833 1.91667 38.75 2.45C38.75 2.88333 38.5167 3.36666 38.05 3.9C37.7167 4.3 37.4667 4.68333 37.3 5.05C37.1333 5.41667 37.0667 5.9 37.1 6.5L37.7 17.4L44.45 5.6C45.55 3.7 46.6167 2.38333 47.65 1.65C48.6833 0.883333 50.0333 0.499999 51.7 0.499999C53.2 0.499999 54.4167 0.949999 55.35 1.85C56.2833 2.75 56.75 3.96666 56.75 5.5Z" fill="white"/>
<path d="M58.2 29.85C57.6667 31.7833 56.6667 33.3 55.2 34.4C53.7333 35.4667 51.8833 36.1333 49.65 36.4C51.25 36.5333 52.45 37 53.25 37.8C54.05 38.6 54.45 39.65 54.45 40.95C54.45 41.45 54.3667 42.0667 54.2 42.8L53.65 45.25C53.5833 45.5833 53.55 45.8167 53.55 45.95C53.55 46.3833 53.65 46.7167 53.85 46.95C54.05 47.15 54.3333 47.25 54.7 47.25C55.4 47.25 55.9 47.35 56.2 47.55C56.5333 47.75 56.65 48.1167 56.55 48.65C56.4167 49.4167 56.0167 50.1667 55.35 50.9C54.6833 51.6333 53.7333 52.25 52.5 52.75C51.3 53.2167 49.8333 53.45 48.1 53.45C45.9 53.45 44.15 52.9667 42.85 52C41.55 51 40.9 49.5833 40.9 47.75C40.9 47.05 41 46.3 41.2 45.5L42 42.3C42.1333 41.8667 42.2 41.4167 42.2 40.95C42.2 40.1833 41.9333 39.6333 41.4 39.3C40.9 38.9667 40.0833 38.8 38.95 38.8H37.05L34.75 47.1C34.6833 47.3 34.65 47.55 34.65 47.85C34.65 48.3167 34.7667 48.7167 35 49.05C35.2333 49.3833 35.55 49.7333 35.95 50.1C36.25 50.3333 36.4833 50.5667 36.65 50.8C36.8167 51 36.9 51.2167 36.9 51.45C36.9 52.0167 36.6333 52.4167 36.1 52.65C35.5667 52.8833 34.7833 53 33.75 53H21.2C20.3333 53 19.6833 52.85 19.25 52.55C18.8167 52.2167 18.6667 51.7667 18.8 51.2C18.8667 50.9 19 50.6667 19.2 50.5C19.3667 50.3 19.6333 50.0833 20 49.85C20.5667 49.5167 21.0167 49.1667 21.35 48.8C21.6833 48.4333 21.95 47.8667 22.15 47.1L28.25 25.55C28.3833 25.1167 28.45 24.7 28.45 24.3C28.45 23.9333 28.3833 23.6333 28.25 23.4C28.15 23.1333 28 22.8333 27.8 22.5C27.5 22.0667 27.35 21.7167 27.35 21.45C27.35 21.35 27.3833 21.1667 27.45 20.9C27.5833 20.4667 27.8667 20.1667 28.3 20C28.7667 19.8 29.4667 19.7 30.4 19.7H47.15C49.45 19.7 51.45 20.05 53.15 20.75C54.8833 21.45 56.2 22.4167 57.1 23.65C58.0333 24.85 58.5 26.2167 58.5 27.75C58.5 28.45 58.4 29.15 58.2 29.85ZM45.4 29.35C45.5667 28.5833 45.65 28 45.65 27.6C45.65 25.8333 44.6833 24.95 42.75 24.95H40.65L38.45 33.8H40.55C41.85 33.8 42.8667 33.4833 43.6 32.85C44.3667 32.2167 44.9667 31.05 45.4 29.35Z" fill="white"/>
</svg>
